<svg width="99" height="99" viewBox="0 0 99 99" fill="none" xmlns="http://www.w3.org/2000/svg">
<path d="M51.974 40.2391C58.5341 40.2391 61.1996 41.2884 61.1996 44.3452C59.6686 45.8756 51.974 44.6404 51.974 40.2391ZM49.2001 92.1035C49.1102 92.1035 49.0198 92.1025 48.9294 92.1014C42.7825 75.0023 53.9361 57.7162 71.8163 57.7162C81.2212 57.7162 84.6264 46.9479 84.0921 41.7915C84.039 41.39 83.7182 41.0963 83.3437 41.0963L65.7225 41.0702C65.4176 41.0697 65.1284 40.9359 64.9313 40.7034L63.1168 38.5671C62.2284 37.521 60.9478 36.8891 59.5782 36.8211L56.0499 36.6449C55.6034 36.6219 55.23 36.3103 55.1095 35.8797C53.6199 30.568 50.6913 26.3347 48.321 24.3425C48.1637 24.2102 47.9231 24.2751 47.8301 24.4584C46.577 26.9385 45.6151 29.3839 45.116 32.2686C45.0777 32.4877 44.7881 32.4877 44.6742 32.267C42.5787 28.1967 39.8754 24.3614 37.0827 21.5758C36.9442 21.4379 36.7179 21.4537 36.6015 21.6105C34.1929 24.8686 31.2408 30.5292 30.7269 40.9216C30.7039 41.3829 30.3887 41.7711 29.9412 41.885C25.4122 43.0364 19.3087 46.3282 17.2051 47.5077C16.728 47.7744 16.8174 47.9675 17.2189 48.013C17.6204 48.0594 24.2623 48.7547 24.5529 48.7853C24.8436 48.816 24.9601 49.0515 24.5979 49.1863C21.0221 50.5176 13.7044 55.1662 11.4552 56.6185C11.0271 56.8953 11.2999 57.0746 11.5405 57.0915C11.7801 57.1078 19.5212 57.4613 19.8742 57.4777C20.2272 57.494 20.405 57.7995 19.9534 57.9497C19.7067 58.0319 13.7463 60.3184 8.39427 62.373C7.06559 58.2373 6.34736 53.8278 6.34736 49.2502C6.34736 25.5828 25.5332 6.39691 49.2001 6.39691C72.8681 6.39691 92.0539 25.5828 92.0539 49.2502C92.0539 72.9181 72.8681 92.1035 49.2001 92.1035ZM49.2001 0.347103C22.2353 0.347103 0.297562 22.2848 0.297562 49.2502C0.297562 76.215 22.2353 98.1528 49.2001 98.1528C76.165 98.1528 98.1032 76.215 98.1032 49.2502C98.1032 22.2848 76.165 0.347103 49.2001 0.347103Z" fill="white"/>
</svg>
