<svg width="88" height="88" viewBox="0 0 88 88" fill="none" xmlns="http://www.w3.org/2000/svg">
<path d="M43.9998 0.641704C19.916 0.641704 0.391479 20.1657 0.391479 44.25C0.391479 48.9206 1.12606 53.42 2.48538 57.6384L2.49509 57.6395C8.01004 55.521 14.4757 53.0409 14.7331 52.9551C15.1842 52.8049 15.0064 52.4995 14.6529 52.4831C14.2999 52.4673 6.55417 52.1128 6.31408 52.0964C6.07347 52.0801 5.80018 51.9002 6.22877 51.6234C8.4795 50.1695 15.8018 45.5174 19.3802 44.1862C19.7424 44.0513 19.6264 43.8153 19.3352 43.7846C19.0446 43.754 12.3981 43.0577 11.9966 43.0123C11.5946 42.9663 11.5052 42.7732 11.9828 42.5055C14.0874 41.3265 20.1955 38.0316 24.7276 36.8792C25.1751 36.7658 25.4908 36.377 25.5137 35.9158C26.0276 25.5157 28.9823 19.8511 31.3924 16.5915C31.5089 16.4341 31.7352 16.4183 31.8736 16.5562C34.6684 19.3438 37.3733 23.1822 39.4702 27.2546C39.5841 27.4763 39.8743 27.4758 39.9126 27.2571C40.4122 24.3694 41.3746 21.923 42.6287 19.4409C42.7217 19.2575 42.9618 19.1926 43.1196 19.3254C45.4914 21.3187 48.4221 25.555 49.9127 30.8703C50.0337 31.3009 50.4072 31.613 50.8541 31.6355L54.384 31.8122C55.7556 31.8807 57.0368 32.5131 57.9256 33.5593L59.7411 35.6976C59.9388 35.9296 60.2284 36.0639 60.5329 36.0644L78.1669 36.0905C78.5408 36.0905 78.8616 36.3847 78.9157 36.7852C79.4496 41.9461 76.0428 52.7222 66.6307 52.7222C48.4849 52.7222 37.2624 70.513 43.9998 87.8583C68.0835 87.8583 87.6081 68.3338 87.6081 44.25C87.6081 20.1657 68.0835 0.641704 43.9998 0.641704Z" fill="#231F20"/>
<path d="M56.0066 39.3412C56.0066 36.2828 53.3396 35.2325 46.7748 35.2325C46.7748 39.6375 54.4751 40.8727 56.0066 39.3412Z" fill="#231F20"/>
<path d="M56.0067 39.3412C54.4752 40.8727 46.7749 39.6375 46.7749 35.2326C53.3396 35.2326 56.0067 36.2828 56.0067 39.3412ZM66.6305 52.722C76.0426 52.722 79.4498 41.9465 78.9155 36.7855C78.8614 36.3845 78.5406 36.0903 78.1666 36.0903L60.5327 36.0642C60.2282 36.0642 59.9386 35.9299 59.7414 35.6974L57.9254 33.5596C57.037 32.5129 55.7554 31.881 54.3838 31.812L50.8539 31.6358C50.4069 31.6133 50.0335 31.3012 49.9124 30.8706C48.4218 25.5553 45.4912 21.319 43.1194 19.3252C42.9615 19.1929 42.7214 19.2578 42.6285 19.4412C41.3744 21.9228 40.412 24.3697 39.9124 27.2569C39.8741 27.4761 39.5839 27.4766 39.47 27.2549C37.373 23.182 34.6682 19.3441 31.8734 16.5565C31.735 16.4186 31.5087 16.4344 31.3922 16.5918C28.9821 19.8514 26.0274 25.516 25.5135 35.9156C25.4905 36.3768 25.1748 36.7656 24.7273 36.8795C20.1952 38.0319 14.0872 41.3263 11.9826 42.5058C11.5049 42.7735 11.5943 42.9666 11.9964 43.0126C12.3979 43.058 19.0448 43.7543 19.335 43.7849C19.6262 43.8156 19.7421 44.0516 19.3799 44.1859C15.8016 45.5177 8.47928 50.1693 6.22855 51.6237C5.79996 51.9005 6.07325 52.0799 6.31386 52.0967C6.55395 52.1131 14.2997 52.4671 14.6527 52.4834C15.0062 52.4998 15.184 52.8047 14.7329 52.9549C14.4754 53.0407 8.00982 55.5213 2.49487 57.6392C2.49231 57.6403 2.48925 57.6418 2.48669 57.6428C8.13855 75.1746 24.5879 87.8586 43.9996 87.8586C37.2622 70.5128 48.4847 52.722 66.6305 52.722Z" fill="white"/>
</svg>
